# xmcd
#
# Track frame offsets:
#	150
#	16281
#	40103
#	58908
#	74649
#	96177
#	110045
#	125789
#	147338
#	164234
#	178784
#	195950
#	210295
#	227556
#	243710
#	261417
#	273584
#	291490
#	307134
#	323555
#
# Disc length: 4470 seconds
#
# Revision: 3
# Processed by: cddbd v1.5.2PL0 Copyright (c) Steve Scherf et al.
# Submitted via: audiograbber 1.83.01
#
DISCID=43117414
DTITLE=Various Artist - Award Winning Country Volume 7
DYEAR=2008
DGENRE=Country
TTITLE0=Carrie Underwood - All-American Girl
TTITLE1=Tim McGraw - Suspicions
TTITLE2=Brad Paisley - I'm Still A Guy
TTITLE3=Brooks and Dunn - Put A Girl In It
TTITLE4=Sugarland - Stay
TTITLE5=Emerson Drive - A Good Man
TTITLE6=Miranda Lambert - More Like Her
TTITLE7=Kenny Chesney - Don't Blink
TTITLE8=Adam Brand - Blame It On Eve
TTITLE9=Melinda Schneider - Stronger
TTITLE10=Adam Harvey - I'm Doin' Alright
TTITLE11=Trace Adkins - I Got My Game On
TTITLE12=Troy Cassar-Daley - Everything's Going To Be Alright
TTITLE13=The McClymonts - Save Yourself
TTITLE14=Sara Storer - Land Cries Out
TTITLE15=The Wilkinsons - Papa Come Quick
TTITLE16=Kellie Pickler - I Wonder
TTITLE17=Corb Lund - Truth Comes Out
TTITLE18=Dianna Corcoran - Then There's Me
TTITLE19=Kirsty Lee Akers - Little Things
EXTD=
EXTT0=
EXTT1=
EXTT2=
EXTT3=
EXTT4=
EXTT5=
EXTT6=
EXTT7=
EXTT8=
EXTT9=
EXTT10=
EXTT11=
EXTT12=
EXTT13=
EXTT14=
EXTT15=
EXTT16=
EXTT17=
EXTT18=
EXTT19=
PLAYORDER=
